<?xml version="1.0" encoding="utf-8"?>
<?xml-stylesheet type="text/xsl" href="rss1.xsl"?>
<rss version="2.0" xmlns:atom="http://www.w3.org/2005/Atom" xmlns:content="http://purl.org/rss/1.0/modules/content/" xmlns:dc="http://purl.org/dc/elements/1.1/" xmlns:media="http://search.yahoo.com/mrss/">
<channel>
 <title>Getty</title>
 <link>http://www.gettyimg.com/</link>
 <atom:link href="http://www.gettyimg.com/" rel="self" type="application/rss+xml" />

 
                <item>
                <title><![CDATA[【MASTER &amp; MASTER RIP】MASTER - (G)I-DLE - Super Lady [Master ProRes 4K]]]></title>
                <link><![CDATA[https://sharemania.us/threads/g-i-dle-super-lady-master-prores-4k.236761/]]></link>
                <description><![CDATA[<article>
<blockquote class="messageText SelectQuoteContainer ugc baseHtml">
<div style="text-align: center"><img src="https://i.imgur.com/ssIxJFk.jpeg" class="bbCodeImage LbImage" alt="[​IMG]" data-url="https://i.imgur.com/ssIxJFk.jpeg" style=""> <br>
<div class="bbCodeBlock bbCodeVfcHH HiddenContent">
<div class="attribution type">Hidden Content:</div>
<blockquote>You must either reply or click 'Like' to see the hidden information contained here.</blockquote>
</div>
<div class="ToggleTriggerAnchor bbCodeSpoilerContainer">
<button type="button" class="button bbCodeSpoilerButton ToggleTrigger Tooltip JsOnly" data-target="> .SpoilerTarget"><span>Spoiler: <span class="SpoilerTitle">MediaInFo</span></span></button>
<div class="SpoilerTarget bbCodeSpoilerText">General<br>
(G)I-DLE - Super Lady (Master ProRes).mov<br>
Format : MPEG-4<br>
Format profile : QuickTime<br>
Codec ID : qt 2005.03 (qt )<br>
File size : 12.6 GiB<br>
Duration : 2 min 40 s<br>
Overall bit rate mode : Variable<br>
Overall bit rate : 674 Mb/s<br>
Frame rate : 23.976 FPS<br>
Encoded date : 2024-01-15 16:42:17 UTC<br>
Tagged date : 2024-01-15 16:42:17 UTC<br>
Writing library : Apple QuickTime<br>
Video<br>
ID : 1<br>
Format : ProRes<br>
Format version : Version 0<br>
Format profile : 422 HQ<br>
Codec ID : apch<br>
Duration : 2 min 40 s<br>
Bit rate mode : Variable<br>
Bit rate : 672 Mb/s<br>
Width : 3 840 pixels<br>
Height : 2 160 pixels<br>
Display aspect ratio : 16:9<br>
Frame rate mode : Constant<br>
Frame rate : 23.976 (24000/1001) FPS<br>
Color space : YUV<br>
Chroma subsampling : 4:2:2<br>
Scan type : Progressive<br>
Bits/(Pixel*Frame) : 3.379<br>
Stream size : 12.5 GiB (100%)<br>
Writing library : adb0<br>
Language : English<br>
Encoded date : 2024-01-15 16:42:17 UTC<br>
Tagged date : 2024-01-15 16:42:17 UTC<br>
Color primaries : BT.709<br>
Transfer characteristics : BT.709<br>
Matrix coefficients : BT.709<br>
Audio<br>
ID : 2<br>
Format : PCM<br>
Format settings : Little / Signed<br>
Codec ID : sowt<br>
Duration : 2 min 40 s<br>
Bit rate mode : Constant<br>
Bit rate : 1 536 kb/s<br>
Channel(s) : 2 channels<br>
Channel layout : L R<br>
Sampling rate : 48.0 kHz<br>
Bit depth : 16 bits<br>
Stream size : 29.3 MiB (0%)<br>
Language : English<br>
Encoded date : 2024-01-15 16:42:17 UTC<br>
Tagged date : 2024-01-15 16:42:17 UTC<br>
Other<br>
ID : 3<br>
Type : Time code<br>
Format : QuickTime TC<br>
Duration : 2 min 40 s<br>
Frame rate : 23.976 (24000/1001) FPS<br>
Time code of first frame : 00:00:00:00<br>
Time code of last frame : 00:02:39:22<br>
Time code, stripped : Yes<br>
Language : English<br>
Encoded date : 2024-01-15 16:42:17 UTC<br>
Tagged date : 2024-01-15 16:42:17 UTC</div>
</div></div>
<div class="messageTextEndMarker">&nbsp;</div>
</blockquote>
</article>]]></description>
                <author><![CDATA[zombieflourish6897]]></author>
                </item>

                
                <item>
                <title><![CDATA[【Requests】[REQ AUD] - Some albums and musics from (Qobuz)]]></title>
                <link><![CDATA[https://sharemania.us/threads/some-albums-and-musics-from-qobuz.236763/]]></link>
                <description><![CDATA[<article>
<blockquote class="messageText SelectQuoteContainer ugc baseHtml">
Could someone please upload these songs, thank you very much!<br>
<br>
<b><b>Chase Atlantic Albums<br>
Paradise - 16-Bit/44.1 kHz</b></b><br>
<a href="https://www.qobuz.com/ie-en/album/paradise-ep-chase-atlantic/i5b9bgy47pmqb" target="_blank" class="externalLink" rel="nofollow">https://www.qobuz.com/ie-en/album/paradise-ep-chase-atlantic/i5b9bgy47pmqb</a><br>
<b><br>
<b>Chase Atlantic - 24-Bit/44.1 kHz</b></b><br>
<a href="https://www.qobuz.com/ie-en/album/chase-atlantic-chase-atlantic/0093624914174" target="_blank" class="externalLink" rel="nofollow">https://www.qobuz.com/ie-en/album/chase-atlantic-chase-atlantic/0093624914174</a><br>
<b><br>
<b>Black and Yellow (feat. Juicy J, Snoop Dogg &amp; T-Pain) (G-Mix) - Wiz Khalifa</b></b><br>
<a href="https://www.qobuz.com/ie-en/album/black-and-yellow-feat-juicy-j-snoop-dogg-t-pain-wiz-khalifa/0075679969453" target="_blank" class="externalLink" rel="nofollow">https://www.qobuz.com/ie-en/album/b...j-snoop-dogg-t-pain-wiz-khalifa/0075679969453</a><br>
<br>
<b>Funk Soda - J Funk Boy</b><br>
<a href="https://www.qobuz.com/ie-en/album/funk-soda-j-funk-boy/sq5cqao0hh0jc" target="_blank" class="externalLink" rel="nofollow">https://www.qobuz.com/ie-en/album/funk-soda-j-funk-boy/sq5cqao0hh0jc</a><br>
<br>
<b>No Words (Instrumentals Pt. 1) - Skeler 24-Bit/44.1 kHz</b><br>
<a href="https://www.qobuz.com/ie-en/album/no-words-instrumentals-pt-1-skeler/ik8ca7687ao7a" target="_blank" class="externalLink" rel="nofollow">https://www.qobuz.com/ie-en/album/no-words-instrumentals-pt-1-skeler/ik8ca7687ao7a</a><br>
<br>
<b>PHONKSTAR - Playa Space</b><br>
<a href="https://www.qobuz.com/ie-en/album/phonkstar-playa-space/qohnlsp26qhra" target="_blank" class="externalLink" rel="nofollow">https://www.qobuz.com/ie-en/album/phonkstar-playa-space/qohnlsp26qhra</a><br>
<br>
<b>Satisfy - Nero</b><br>
<a href="https://www.qobuz.com/ie-en/album/satisfy-nero/0060253787016" target="_blank" class="externalLink" rel="nofollow">https://www.qobuz.com/ie-en/album/satisfy-nero/0060253787016</a><br>
<b><br>
<b><b>Would You - Campbell x Alcemist</b></b></b><br>
<a href="https://www.qobuz.com/ie-en/album/would-you-go-to-bed-with-me-campbell-x-alcemist/dywawzy1g7zcb" target="_blank" class="externalLink" rel="nofollow">https://www.qobuz.com/ie-en/album/would-you-go-to-bed-with-me-campbell-x-alcemist/dywawzy1g7zcb</a><br>
<br>
Thanks For Sharing !!
<div class="messageTextEndMarker">&nbsp;</div>
</blockquote>
</article>]]></description>
                <author><![CDATA[alexwahevat]]></author>
                </item>

                
                <item>
                <title><![CDATA[【Requests】[REQ AUD] - Florence + The Machine - Dance Fever (Dolby Atmos)]]></title>
                <link><![CDATA[https://sharemania.us/threads/florence-the-machine-dance-fever-dolby-atmos.236760/]]></link>
                <description><![CDATA[<article>
<blockquote class="messageText SelectQuoteContainer ugc baseHtml">
It seems to have been uploaded a while back but the drive was deleted. It seems to be currently available on Tidal in Dolby Atmos.<br>
<br>
Thanks a bunch!
<div class="messageTextEndMarker">&nbsp;</div>
</blockquote>
</article>]]></description>
                <author><![CDATA[coolusernameaf]]></author>
                </item>

                
                <item>
                <title><![CDATA[【Requests】[REQ AUD] - Derek and the Dominos - Layla and Other Assorted Love Songs (Album)]]></title>
                <link><![CDATA[https://sharemania.us/threads/derek-and-the-dominos-layla-and-other-assorted-love-songs-album.236759/]]></link>
                <description><![CDATA[<article>
<blockquote class="messageText SelectQuoteContainer ugc baseHtml">
Had a look around on here and this one isn’t on any of the Eric Clapton threads.<br>
<br>
Would be mega if I could have this in FLAC or iTunes M4A. <br>
<br>
Also preferably the 40th Anniversary edition of the 14 songs. Better mixes, Found in this link: <br>
<a href="https://music.apple.com/nz/album/layla-and-other-assorted-love-songs-40th-anniversary/1440663263" target="_blank" class="externalLink" rel="nofollow">https://music.apple.com/nz/album/layla-and-other-assorted-love-songs-40th-anniversary/1440663263</a><br>
<br>
Cheers.
<div class="messageTextEndMarker">&nbsp;</div>
</blockquote>
</article>]]></description>
                <author><![CDATA[TroyBolton]]></author>
                </item>

                
                <item>
                <title><![CDATA[【PRORES HD】(G)I-DLE - Super Lady [Master ProRes 4K]]]></title>
                <link><![CDATA[https://sharemania.us/threads/g-i-dle-super-lady-master-prores-4k.236762/]]></link>
                <description><![CDATA[<article>
<blockquote class="messageText SelectQuoteContainer ugc baseHtml">
<div style="text-align: center"><img src="https://i.imgur.com/ssIxJFk.jpeg" class="bbCodeImage LbImage" alt="[​IMG]" data-url="https://i.imgur.com/ssIxJFk.jpeg" style=""> <br>
<div class="bbCodeBlock bbCodeVfcHH HiddenContent">
<div class="attribution type">Hidden Content:</div>
<blockquote>You must either reply or click 'Like' to see the hidden information contained here.</blockquote>
</div>
<div class="ToggleTriggerAnchor bbCodeSpoilerContainer">
<button type="button" class="button bbCodeSpoilerButton ToggleTrigger Tooltip JsOnly" data-target="> .SpoilerTarget"><span>Spoiler: <span class="SpoilerTitle">MediaInFo</span></span></button>
<div class="SpoilerTarget bbCodeSpoilerText">General<br>
(G)I-DLE - Super Lady (Master ProRes).mov<br>
Format : MPEG-4<br>
Format profile : QuickTime<br>
Codec ID : qt 2005.03 (qt )<br>
File size : 12.6 GiB<br>
Duration : 2 min 40 s<br>
Overall bit rate mode : Variable<br>
Overall bit rate : 674 Mb/s<br>
Frame rate : 23.976 FPS<br>
Encoded date : 2024-01-15 16:42:17 UTC<br>
Tagged date : 2024-01-15 16:42:17 UTC<br>
Writing library : Apple QuickTime<br>
Video<br>
ID : 1<br>
Format : ProRes<br>
Format version : Version 0<br>
Format profile : 422 HQ<br>
Codec ID : apch<br>
Duration : 2 min 40 s<br>
Bit rate mode : Variable<br>
Bit rate : 672 Mb/s<br>
Width : 3 840 pixels<br>
Height : 2 160 pixels<br>
Display aspect ratio : 16:9<br>
Frame rate mode : Constant<br>
Frame rate : 23.976 (24000/1001) FPS<br>
Color space : YUV<br>
Chroma subsampling : 4:2:2<br>
Scan type : Progressive<br>
Bits/(Pixel*Frame) : 3.379<br>
Stream size : 12.5 GiB (100%)<br>
Writing library : adb0<br>
Language : English<br>
Encoded date : 2024-01-15 16:42:17 UTC<br>
Tagged date : 2024-01-15 16:42:17 UTC<br>
Color primaries : BT.709<br>
Transfer characteristics : BT.709<br>
Matrix coefficients : BT.709<br>
Audio<br>
ID : 2<br>
Format : PCM<br>
Format settings : Little / Signed<br>
Codec ID : sowt<br>
Duration : 2 min 40 s<br>
Bit rate mode : Constant<br>
Bit rate : 1 536 kb/s<br>
Channel(s) : 2 channels<br>
Channel layout : L R<br>
Sampling rate : 48.0 kHz<br>
Bit depth : 16 bits<br>
Stream size : 29.3 MiB (0%)<br>
Language : English<br>
Encoded date : 2024-01-15 16:42:17 UTC<br>
Tagged date : 2024-01-15 16:42:17 UTC<br>
Other<br>
ID : 3<br>
Type : Time code<br>
Format : QuickTime TC<br>
Duration : 2 min 40 s<br>
Frame rate : 23.976 (24000/1001) FPS<br>
Time code of first frame : 00:00:00:00<br>
Time code of last frame : 00:02:39:22<br>
Time code, stripped : Yes<br>
Language : English<br>
Encoded date : 2024-01-15 16:42:17 UTC<br>
Tagged date : 2024-01-15 16:42:17 UTC</div>
</div></div>
<div class="messageTextEndMarker">&nbsp;</div>
</blockquote>
</article>]]></description>
                <author><![CDATA[zombieflourish6897]]></author>
                </item>

                </channel></rss>